<svg viewBox="0 0 70 70" xml:space="preserve" xmlns="http://www.w3.org/2000/svg"><path d="M18.001 40.174c1.841-1.132 4.094-2.016 6.516-2.557 1.5.668 3.095 1.097 4.722 1.279a31.247 31.247 0 0 1 3.223-.975 11.031 11.031 0 0 1-1.704-2.938 11.924 11.924 0 0 1-5.67-1.554c-4.024.687-7.581 2.157-10.219 4.02A2.033 2.033 0 0 0 14 39l.003 5.895A2 2 0 0 0 16 47h5.009v-1.078l.004-.079A4.97 4.97 0 0 1 22.097 43h-4.094l-.002-2.826zM30.041 31.938a10.943 10.943 0 0 1 .4-3.994c-1.943-.271-3.449-1.927-3.449-3.944 0-2.206 1.794-4 4-4 1.53 0 2.846.873 3.519 2.138a10.944 10.944 0 0 1 3.616-1.744A7.995 7.995 0 0 0 30.992 16a8 8 0 0 0-8 8c0 4.096 3.08 7.468 7.049 7.938zM55.191 44.329c-2.156-1.624-5.23-2.919-8.723-3.656A11.919 11.919 0 0 1 41.008 42c-2.15 0-4.165-.576-5.913-1.57-4.024.687-7.581 2.157-10.219 4.02a2.032 2.032 0 0 0-.869 1.55l.003 5.895A2.002 2.002 0 0 0 26.008 54h27.995A2 2 0 0 0 56 52.105l.007-6.155a2.027 2.027 0 0 0-.816-1.621zM52.002 50H28.01l-.001-2.826c1.841-1.132 4.094-2.016 6.516-2.557A15.956 15.956 0 0 0 41.008 46c2.029 0 3.996-.377 5.866-1.122 1.989.523 3.756 1.25 5.132 2.112L52.002 50zM33 31a8 8 0 1 0 16 0 8 8 0 0 0-16 0zm8-4c2.206 0 4 1.794 4 4s-1.794 4-4 4-4-1.794-4-4 1.794-4 4-4z" fill="#0011ff" class="fill-000000"></path></svg>